HIERARCHY
ROOT base
{
	OFFSET 0.0 0.0 0.0
	CHANNELS 6 Xposition Yposition Zposition Zrotation Yrotation Xrotation
	JOINT root
	{
		OFFSET 0 0 0
		CHANNELS 6 Xposition Yposition Zposition Zrotation Yrotation Xrotation
		JOINT chest
		{
			OFFSET 0 4.72302 0
			CHANNELS 3 Zrotation Yrotation Xrotation
			JOINT neck
			{
				OFFSET 0 4.47788 0
				CHANNELS 3 Zrotation Yrotation Xrotation
				End Site
				{
					OFFSET 0.0 0.0 0.0
				}
			}
			JOINT right_shoulder
			{
				OFFSET -0.481 4.87 3.6622
				CHANNELS 3 Zrotation Yrotation Xrotation
				JOINT right_elbow
				{
					OFFSET 0 -5.49576 0
					CHANNELS 3 Zrotation Yrotation Xrotation
					JOINT right_wrist
					{
						OFFSET 0 -5.17894 0
						CHANNELS 3 Zrotation Yrotation Xrotation
						End Site
						{
							OFFSET 0.0 0.0 0.0
						}
					}
				}
			}
			JOINT left_shoulder
			{
				OFFSET -0.481 4.87 -3.6622
				CHANNELS 3 Zrotation Yrotation Xrotation
				JOINT left_elbow
				{
					OFFSET 0 -5.49576 0
					CHANNELS 3 Zrotation Yrotation Xrotation
					JOINT left_wrist
					{
						OFFSET 0 -5.17894 0
						CHANNELS 3 Zrotation Yrotation Xrotation
						End Site
						{
							OFFSET 0.0 0.0 0.0
						}
					}
				}
			}
		}
		JOINT right_hip
		{
			OFFSET 0 0 1.69774
			CHANNELS 3 Zrotation Yrotation Xrotation
			JOINT right_knee
			{
				OFFSET 0 -8.43092 0
				CHANNELS 3 Zrotation Yrotation Xrotation
				JOINT right_ankle
				{
					OFFSET 0 -8.1974 0
					CHANNELS 3 Zrotation Yrotation Xrotation
					End Site
					{
						OFFSET 0.0 0.0 0.0
					}
				}
			}
		}
		JOINT left_hip
		{
			OFFSET 0 0 -1.69774
			CHANNELS 3 Zrotation Yrotation Xrotation
			JOINT left_knee
			{
				OFFSET 0 -8.43092 0
				CHANNELS 3 Zrotation Yrotation Xrotation
				JOINT left_ankle
				{
					OFFSET 0 -8.1974 0
					CHANNELS 3 Zrotation Yrotation Xrotation
					End Site
					{
						OFFSET 0.0 0.0 0.0
					}
				}
			}
		}
	}
	JOINT red_arrow
	{
		OFFSET 0 0 0
		CHANNELS 3 Zrotation Yrotation Xrotation
		End Site
		{
			OFFSET 0.0 0.0 0.0
		}
	}
	JOINT blue_arrow
	{
		OFFSET 0 0 0
		CHANNELS 3 Zrotation Yrotation Xrotation
		End Site
		{
			OFFSET 0.0 0.0 0.0
		}
	}
}
MOTION
Frames: 6
Frame Time: 0.0333333333333333
0 18.08466 0 0 0 0 0 0 0 0 -90 0 0 0 0 0 0 0 0 0 -90 0 0 0 0 0 0 0 0 90 0 0 0 0 0 0 0 0 0 0 0 0 0 0 0 0 0 0 0 0 0 0 0 0 0 0 0 0 0 0
0.576953805983067 0 0.0679825630038977 0 1.51687415007888 0 0 17.0124045014381 0 -6.86755043227232 2.42268813627104E-15 1.37817292675543 -4.18701861461124 -5.68362397413976 -0.466897804626571 1.29802361853017 -0.0504276043436181 0.24620512332031 -10.9547409037692 5.30402211682426 -4.21456181978075 8.32310459803746 0 0 0 0 0 9.92049027311411 -20.367296969199 18.978249581824 35.8498222174156 0 0 0 0 0 29.7766930762937 -6.89286077954935 1.54998784031604 -16.1612811329296 0 0 -7.595038659617 6.91168096906215 -0.581463789936889 -4.56334810085858 5.97727331927504 -1.7708920652899 -28.8100589380048 0 0 -0.292471396640912 -3.11926149248134 3.14345011641315 0 0 0 0 0 0
1.23630412518978 0 0.100580005161464 0 1.46180837931495 0 0 17.026484131813 0 -8.01445030288707 -1.03603309666582 0.510109041026216 -6.43753090317521 -4.87659148360262 -0.729055159850899 -2.9315852675177 -0.220563986602188 -0.627478228461047 -7.78685919553924 6.04742907126828 -4.22650330457308 3.57590178406081 0 0 0 0 0 11.7323990225232 -22.6338986173698 18.5487203828082 35.064647576093 0 0 0 0 0 28.2665343121067 -6.01627270957114 3.26426425591845 -16.1917488992698 0 0 -4.73859815263952 7.58328573864286 -5.56152214293158 -2.50422008673461 4.91314362794483 -0.914358923614278 -32.3080003025488 0 0 -9.80315928293231 -2.46649785512872 2.6269514416351 0 0 0 0 0 0
1.9332551419735 0 0.148792698048055 0 1.37206646785357 0 0 17.1723764657974 0 -8.5246106404706 -1.68626983199443 -0.568774515600712 -8.39793643610544 -4.67610096377322 -1.29402636942869 -3.78001230879099 -0.221998734851324 -0.657095189300658 -5.49256396089309 5.16394931264589 -3.85418308046816 1.98106072371247 0 0 0 0 0 11.679383109984 -20.0382020772776 15.8601322988908 35.6945925081487 0 0 0 0 0 25.0159204155983 -5.15142304905547 4.91939161698498 -13.7340982792847 0 0 -3.52327143304685 7.18367644909175 -5.4185608591748 2.52945443826493 4.08238392910443 0.281418404995835 -41.1999401301379 0 0 -23.0456986539269 -1.11598512495622 6.42196706039377 0 0 0 0 0 0
2.69581227004528 0 0.163275445625186 0 1.28001759339787 0 0 17.3254851460457 0 -8.16349713957428 -1.73121738270263 -1.66776161298121 -8.97935507586983 -3.97145113325846 -1.5419151277822 -4.08153562096267 -0.187120954875066 -0.716950629944101 -4.15082343185956 7.92433783795601 -5.36333549293709 3.49918787406757 0 0 0 0 0 10.8283733986192 -16.7913015882219 12.0393095166955 34.1801858899006 0 0 0 0 0 19.7020817709602 -3.78858556178069 6.30681959599575 -9.08890711532658 0 0 -3.13395648669058 6.07923242771675 -5.07135146970745 9.21276422529226 3.04074707395054 2.00803050479795 -54.5159813133463 0 0 -26.2822276573554 -1.00364364119696 7.0444609416446 0 0 0 0 0 0
3.49940933287144 0 0.132226568087935 0 1.2120989931355 0 0 17.4299669861794 0 -7.51516509253316 -1.27937247019089 -2.27210061477695 -7.76909114466693 -3.23011331603637 -1.58713456250789 -3.06090525882209 -0.147343555499563 -0.864017730094719 -3.02687521532574 10.6303693009581 -7.36488021465629 8.33874060859491 0 0 0 0 0 8.05046350109924 -11.2342161153328 8.72734596345773 29.5713688983673 0 0 0 0 0 14.6435092471679 -3.20605500479924 6.79521433103749 -5.80129715740485 0 0 -1.92671042141623 5.53470802999353 -4.74091302773965 16.9226059023483 2.11420872755987 4.15127847486344 -68.5953985891413 0 0 -20.216462269012 -1.08005622727994 5.29227306824849 0 0 0 0 0 0
